<svg xmlns="http://www.w3.org/2000/svg"><symbol id="micropachycephalosaurus" viewBox="0 0 256 256"><path d="M132.6 150.8c-.3 0-.4.2-.4.6h-.1a.5.5 0 0 0-.5.5c0 .4.2.6.5.6s.4-.2.4-.6h.1c.3 0 .5-.1.5-.5s-.2-.6-.5-.6zm1.4-.7a1.9 1.9 0 0 0-.8.7h.3l1.1-.3a2 2 0 0 0 .8-.8h-.3a1.7 1.7 0 0 0-1.1.4zm3-2.6c-.2 0-.4.2-.4.6h-.1c-.3 0-.4.1-.4.5h-.1c-.4 0-.5.2-.5.6s.1.5.5.5.4-.1.4-.5h.1c.3 0 .5-.2.5-.6.4 0 .6-.2.6-.5a.5.5 0 0 0-.6-.6zm23.1-5.9a9.2 9.2 0 0 1-1.3 1.4 1.7 1.7 0 0 0 .8 1.1l1.1.2a2.2 2.2 0 0 0 1.4-.5 4.3 4.3 0 0 0 1.1-1.2 6.9 6.9 0 0 0 .7-1.5c.2-.5.4-1.1.5-1.1H161c-.2 0-.5 1-.9 1.6z"/><path d="M128.1 1.9a126 126 0 1 0 126 126 126 126 0 0 0-126-126zm94.5 74.8a4.1 4.1 0 0 1-1.6.3h-3.7l-5.1 1.2a20.4 20.4 0 0 0-3.6 1.6 8.8 8.8 0 0 0-2.5 2.2 11.7 11.7 0 0 0-1.7 2.9c-.5 1.1-1 2.4-1.5 3.8s-1 3.2-1.7 5-.7 2.4-1.1 3.5-.8 2.1-1.3 3.1-.9 2.1-1.4 3.1a35.8 35.8 0 0 1-1.8 3.2 41 41 0 0 1-2.6 4.1l-2.9 3.6-3.1 3.7c-1.1 1.2-2.1 2.5-3.1 3.8a11.6 11.6 0 0 0-1.4 2.7l-.9 2.5a9.8 9.8 0 0 1-1.3 2.2 6.7 6.7 0 0 1-2.5 1.6l-1.3.5-2 .7-2.1.6-1.3.4a2.8 2.8 0 0 1 .1 2 1.4 1.4 0 0 1-.8.9l-1.2.6a1.8 1.8 0 0 0-.9 1l-2.2 6.6a2.2 2.2 0 0 1-1.1 1.5 5.6 5.6 0 0 1-1.7.9 13.6 13.6 0 0 1-2 .2l-1.9-.2h-.8c-.5 0-.8.2-1.1.1s-.4-.3-.4-.8 0-.3.1-.4l.2-.3.3-.3c0-.1.1-.2.1-.4h-.1v-.2a27 27 0 0 0-3.4 1.7l-3.3 2-3.3 2.2-3.4 1.9-.8.5a3.4 3.4 0 0 0-1.2.6 3.1 3.1 0 0 0-.9.7 1.6 1.6 0 0 0-.5 1.1.5.5 0 0 0 .1.3v.2l1.7 1.6 2 1.7a15.6 15.6 0 0 0 2 1.6l2.1 1.3a7.6 7.6 0 0 0 1.8.6l1.9.6 1.9.6a5.1 5.1 0 0 1 1.6.9l1.4 1.4 1.1 1.5a7.6 7.6 0 0 0 1.1 1.4 5.7 5.7 0 0 0 1.4 1.3l1.7.6 2.1.6a9.5 9.5 0 0 1 1.7 1 2.3 2.3 0 0 1 .8 1.7.4.4 0 0 1-.1.3v.3l-5.6 1.1-1.1.4-1.1.2h-.6l-1.1-.6-1.7-1-1.7-1.1c-.5-.3-.9-.5-1-.7l-.2-.2-.4-.5-.3-.5-.2-.5-2.3-4.5-1.1-.4-1.8-.7-2.1-1-2.2-.9-1.7-.8-1.1-.6-2.8-1.6a17.1 17.1 0 0 1-2.6-2.1 13.5 13.5 0 0 1-2-2.7 8.1 8.1 0 0 1-1-3.1l-.6.3-.6.3-.8.6-1.7 1.2-2.1 1.4-2.1 1.3-1.8 1.1-.9.5-5.9 3.5a20.4 20.4 0 0 0-4.5 3.4 15.4 15.4 0 0 0-3.6 4.4c-.9 1.7-.7 3.9-2.4 6.6v1.5a8.5 8.5 0 0 0 1.2 4.4 6.9 6.9 0 0 0 2.1 2.6 8.2 8.2 0 0 0 2.6 1.4 14.5 14.5 0 0 1 2.5 1 6.1 6.1 0 0 1 2 .9 5.3 5.3 0 0 1 .8 2h-13.2l-.2-.4-.4-.2h-.5l-.6-.3a2.8 2.8 0 0 1-1.2-1.6 6.5 6.5 0 0 1-.5-2.1 17.9 17.9 0 0 1 .2-2.3c0-.8.3-1.5.3-2.1v-1.4a4.3 4.3 0 0 1 .3-1.7c.2-.8.3-1.7.5-2.7s.5-2 .8-3.1.5-2.2.8-3.2.5-1.8.6-2.6l.5-1.8.6-2c.3-.5.6-1.2 1-1.8a14 14 0 0 0 4.5-2.6 32.2 32.2 0 0 0 3.2-3.2l2.9-3.4a12.7 12.7 0 0 1 3.4-3.1l1.4-.7 2-.8 2.3-.9 2.2-1.2a6.4 6.4 0 0 0 1.5-1.3 2 2 0 0 0 .6-1.5v-1.3a1.7 1.7 0 0 0-.6-1.2l-.7-.3-1.2-.5-1.2-.6-.8-.3a9.4 9.4 0 0 1-2-1.2l-2.6-1.9a23.6 23.6 0 0 0-2.5-1.5 3.4 3.4 0 0 0-1.8-.6h-7.8c-5.9 0-11.7-.1-17.5.1s-11.6.2-17.5.2c-4.4 0-8.6-.2-12.8-.4s-8.2-.7-12.2-1.3a99.8 99.8 0 0 1-12-2.9 68.8 68.8 0 0 1-11.6-5l-1.5-.7-1.5-1a8 8 0 0 1-1.3-1.3 2.4 2.4 0 0 1-.5-1.6 5.4 5.4 0 0 1 2 .4l2.4.9 2.2 1 1.5.6 4.6 1.7 5 1.4 5.1 1 4.8.3H73l2.6-.3 3.3-.6 3.6-.6 3.4-.6 2.6-.5 6.9-1.4c2.4-.4 4.8-1 7.3-1.6l7.2-2.1a42.2 42.2 0 0 0 6.5-2.7l3.8-1.8 3.8-1.6 3.9-1.3a25.9 25.9 0 0 1 4.2-.9h2.7l1.8-.2a1.6 1.6 0 0 0 1-.2l1.9-.3 3.3-.7 4.1-.9 4-.9c1.2-.3 2.3-.9 3.3-1.1s1.5-.7 1.8-.7h6.5a68.2 68.2 0 0 1 7.9.7c2.5.2 5.1.5 7.8.5a10.1 10.1 0 0 0 5-1.3 17.9 17.9 0 0 0 4.4-3.4 33.3 33.3 0 0 0 3.9-5 62.2 62.2 0 0 0 3.2-5.6 52.5 52.5 0 0 0 2.5-5.5c.8-1.8 1.3-3.4 1.8-4.8s.8-2.3 1.1-3.4.7-2.2 1-3.1.8-1.8 1.2-2.6a8.6 8.6 0 0 1 1.8-2 8.2 8.2 0 0 1 2.6-1.6 12.8 12.8 0 0 1 3.7-.7h.6a3.3 3.3 0 0 1 1 0h1.5c.7 1.6 1.7.9 2.9 1.3a21.7 21.7 0 0 1 3.5 1.5 10.9 10.9 0 0 1 3 1.8 2.7 2.7 0 0 1 1.2 2.1 2 2 0 0 1-.4 1.4 3.1 3.1 0 0 1-1.1.4z"/></symbol><symbol id="velociraptor" viewBox="0 0 256 256"><path d="M127.9 1.4a126 126 0 1 0 126 126 126 126 0 0 0-126-126zm109 115h-7.3c-3 0-6.1-.1-9.1-.4l-9-.9-9-1c-3-.3-6.1-.4-9.1-.4a148 148 0 0 0-16.2.9 73.9 73.9 0 0 0-15.6 3.7l-30.3 10.9a2.4 2.4 0 0 0-1.2 1.6 17.3 17.3 0 0 0-.8 2.7l-.6 2.8a7 7 0 0 1-.6 1.9 2.9 2.9 0 0 0 1.3 1.4l2.5 1.1 2.8 1.2a24.4 24.4 0 0 1 2.8 1.4 7.3 7.3 0 0 1 2 1.9 3.5 3.5 0 0 1 .8 2.4 1.6 1.6 0 0 1-.4 1.2l-1.2.9-1.6.7-1.6.8a4 4 0 0 0-1.2 1 2 2 0 0 0-.5 1.5 3.3 3.3 0 0 0 .8 2.5 7.7 7.7 0 0 0 1.9 1.6l2.3 1.3a7.2 7.2 0 0 1 2.2 1.7 23.3 23.3 0 0 1 2 3.4 22.9 22.9 0 0 1 1.2 3.7c.3 1.2.6 2.5.8 3.8s.1 2.6.2 3.9l1.3 1.3v7.1h.9l1 .2 1 .2.5.2a3.9 3.9 0 0 1 .1.9 3.4 3.4 0 0 1-.1.9l-.3 1.2a2.6 2.6 0 0 1-.7 1 .8.8 0 0 1-.8.3h-5.2c-.2 0-.5-.5-1-.8l-1.4-.9a8 8 0 0 1-1.6-.8c-.5-.3-.9-.8-1.1-.8h-6.1a4.6 4.6 0 0 1 .6-2.9 4.9 4.9 0 0 1 1.6-1.6 8.3 8.3 0 0 1 2.1-.6l2.1-.4a3.4 3.4 0 0 0 1.6-.6 1.3 1.3 0 0 0 .7-1.3v-.3a.4.4 0 0 0-.1-.3 8.3 8.3 0 0 0-.8-1.8c-.4-.8-.8-1.6-1.3-2.4a12.8 12.8 0 0 0-1.5-2.5 8.6 8.6 0 0 0-1.5-1.7 4.9 4.9 0 0 0-1.3-.8l-1.8-1-1.8-1a2.2 2.2 0 0 1-.9-1.1 16.3 16.3 0 0 1-1-2.9 17 17 0 0 0-1-3.2 9.8 9.8 0 0 0-1.7-2.6 3.9 3.9 0 0 0-2.9-1 24.7 24.7 0 0 0-6 .8 28 28 0 0 0-5.7 2.2 33 33 0 0 0-4.9 3.4 24.4 24.4 0 0 0-3.9 4.6l-.3.2h-.3a.5.5 0 0 1-.2-.4c-.1-.1-.1-.3-.2-.6s-.1-.4-.1-.6-.1-.3-.2-.3h-.3a1.4 1.4 0 0 0-1 .5l-.9 1.1a10 10 0 0 0-.8 1.4l-.9.9a6.4 6.4 0 0 1-.6-1.6c0-.4-.1-1-.1-1.6a13.5 13.5 0 0 1 .4-2.9l.9-2.8c.3-.9.6-1.5.9-2.5a15.2 15.2 0 0 0 .4-2.7h-4.8c0-1.7.2-1.8.6-2.4a7.5 7.5 0 0 1 1.6-1.5 10 10 0 0 1 2.1-1l2.1-.2a15.1 15.1 0 0 1 3 .2l2.9.4 2.9.5 2.9.2h2.3a2.5 2.5 0 0 0-1.7-1.3 10.1 10.1 0 0 0-2.5-.5l-2.7-.2c-.9 0-1.6.2-2.2-.2l-3.8-2.2h-.3a16 16 0 0 0-3.1 0 11.3 11.3 0 0 1-3.2.2 7.3 7.3 0 0 1-2.9-.7l-2.6-1.4-2.6-1.8a5.5 5.5 0 0 0-2.9-.6v6l1.6-.2 1-.3.8-.5c.4-.2.4-.4.9-.7h.6v2.7l2-.7c0 .2.2.3.2.6s.2.3.2.4a5.6 5.6 0 0 1-1.4 3.9 23.1 23.1 0 0 1-3.2 2.9 25.4 25.4 0 0 0-4.5-1.3l-4.8-.6v-7.8l-1.7.6a7.5 7.5 0 0 0-2 1 6.8 6.8 0 0 0-1.9 1.1c-.5.4-1 .8-1 1.2v6.8a17 17 0 0 0 3-.2l1.8-.6 1.2-.6a2.7 2.7 0 0 1 1.2-.3h.4l.3.7.4 1.2a9.3 9.3 0 0 1 .4 1.3 4.4 4.4 0 0 1 .2 1 3.9 3.9 0 0 1-.4 1.8 5.4 5.4 0 0 1-1.1 1.8 5 5 0 0 1-1.5 1.4 4.1 4.1 0 0 1-1.8.5h-1l-3-.5a20.9 20.9 0 0 1-3.6-.7 11.9 11.9 0 0 1-3.2-1.2 2.5 2.5 0 0 1-1.5-2.1v-11.7l.9-.8 1.9-1.6 2.3-2.1a28.4 28.4 0 0 0 2.4-2.6 20.3 20.3 0 0 0 1.8-2.6 5.1 5.1 0 0 0 .7-2.6 4 4 0 0 0-1.1-2.7 14.2 14.2 0 0 0-2.8-2 28.4 28.4 0 0 0-3.2-1.4l-2.6-.9-1.3-9a14.7 14.7 0 0 0-.6-2.7 8.1 8.1 0 0 0-1.1-2.7 6.2 6.2 0 0 0-1.7-2.2 4.6 4.6 0 0 0-2.7-.8 13.7 13.7 0 0 0-3.6.4l-3.1 1.5-1.7 1-2.5 1.5-2.9 1.8-3 1.7c-.9.5-1.7 1.2-2.5 1.6S35 123 34.7 123h-1l-1.7-.2a7.8 7.8 0 0 1-2.1-.4 2.7 2.7 0 0 1-1.3-.7c-.5-.3-.4-.8-.4-1.4v-1.8c0-.6-.2-.9.1-1h1.5v-.4c.1-.2.1-.5.2-.8s.1-.6.1-.9a1 1 0 0 0 .1-.4 3.6 3.6 0 0 0-.8-.9l-.9-.5c-.3-.1-.5-.4-.7-.6a2.3 2.3 0 0 1-.3-1.3 2.6 2.6 0 0 1 .3-1.1 6.7 6.7 0 0 1 .6-1.2c.3-.3.3-.6.7-.8a1.8 1.8 0 0 1 .8-.4v.8c0 .5.4 1 .5 1.5a1.2 1.2 0 0 0 1.2.7 1.8 1.8 0 0 0 1.1-.5 4.8 4.8 0 0 0 .9-1.1 11.1 11.1 0 0 0 .7-1.6c.1-.5.2.2.2-1.4H22.4a1.5 1.5 0 0 1-.8-.5l-1.1-.6-.9-.8a1.8 1.8 0 0 1-.4-1 4.6 4.6 0 0 1 1.1-3.2 6.8 6.8 0 0 1 2.6-1.8l3.1-1a17.1 17.1 0 0 0 2.9-.8L31 96l3.4-1.6 3.3-1.5c1-.5 1.7-1.1 2.2-1.1h13.4a7.3 7.3 0 0 1 3.9 1 17.9 17.9 0 0 1 3.1 2.5 28.5 28.5 0 0 1 2.5 3.3l2.2 3.2a15.1 15.1 0 0 0 2.3 2.6 3.9 3.9 0 0 0 2.5 1 .8.8 0 0 0 .7-.4 1 1 0 0 1 .9-.4 4 4 0 0 1 1.5.3l1.5.7 1.5.7a4 4 0 0 0 1.5.3l4.1-.2 4.1-.4 4-.5a28.2 28.2 0 0 1 4.1-.2c2.5 0 4.9.1 7.3.3a38 38 0 0 1 7.1 1.6 52.1 52.1 0 0 1 5 2l5.1 2.1a45.6 45.6 0 0 0 5.2 1.8 23.3 23.3 0 0 0 5.3.7h2.6c4.3-1 8.5-1.9 12.8-2.7s8.4-1.7 12.7-2.3 8.5-1.1 12.8-1.5 8.6-.6 13-.6h8.7a45.8 45.8 0 0 1 5 .9l36.1 7.2H244c-.8 0-1.8 1-3.1 1.4a26.1 26.1 0 0 1-4 .2z"/></symbol><symbol id="brachiosaurus" viewBox="0 0 256 256"><path d="M59.6 166.4a31.6 31.6 0 0 0-7.6.8v.2c0 .2.3.6.8.9a16 16 0 0 0 1.9 1.1l2.7.9 2.8.9 2.3.6 1.5.2h2.1l2.5-.4 2.4-.9a4.5 4.5 0 0 0 1.6-1.4 23.6 23.6 0 0 0-6.3-2.2 29.9 29.9 0 0 0-6.7-.7z"/><path d="M128 1.7a126 126 0 1 0 126 126 126 126 0 0 0-126-126zm82.2 69.5v.3a8.8 8.8 0 0 1-.1 1.4 11.8 11.8 0 0 0-.3 2.1 17.7 17.7 0 0 0-.4 2c-.1.7-.2 1.1-.2 1.4a5.1 5.1 0 0 0-.9 1.8 14.6 14.6 0 0 0-.7 1.9c-.2.7-.3 1.3-.5 2a10.8 10.8 0 0 1-.8 1.9 30.1 30.1 0 0 1-1.6 3.1 21.1 21.1 0 0 0-1.6 3l-19.8 27.5c-.1.2-.1.4-.2.5l-.3.3-.3.3-.4.5-1.6 2.2c-.7.9-1.4 1.8-2.1 2.9l-2.1 3.2c-.8 1.1-1.4 2.2-2 3.2s-1 2-1.4 2.9a8.7 8.7 0 0 0-.5 2.3c0 .3-.2.6-.2.8s.2.4.2.7c-.2 0-.3.1-.3.4s.1.3.3.4v10a1.9 1.9 0 0 1-.3 1l-.3 1.2a6.7 6.7 0 0 0-.6 1.2c-.1.4-.5.8-.5 1.1v1.6c0 .1.2.2 0 .5a2.5 2.5 0 0 1-.4.7l-.7.8c-.2.3-.5.4-.5.5v.3c0 .1.7.3.8.5s.8.3.8.4v2.8a23.3 23.3 0 0 1-.6 3.5c-.2 1.1-.5 2.3-.7 3.4s-.5 2.3-.7 3.5a20.7 20.7 0 0 0-.3 3.5c0 2.1.1 4.2.3 6.2a38.8 38.8 0 0 0 1 6.1 35.4 35.4 0 0 0 2.2 5.7 21.8 21.8 0 0 0 3.3 5.2 3.6 3.6 0 0 1-1.2.8l-1.7.7-1.7.5h-1.9l-1-.3-1.2-.2-.9-.3h-.8l-.7-.3a1 1 0 0 1-.6-.5c-.2-.1-.3-.4-.4-.7a26.1 26.1 0 0 0 .2-4l-.3-4.2c-.2-1.4-.4-2.8-.5-4.3l-.6-4-.2-.6a.8.8 0 0 0-.2-.6c.1-1.1.1-2.3.1-3.6s0-2.7-.1-4a25.7 25.7 0 0 0-.6-4 12.8 12.8 0 0 0-1.4-3.4 3.7 3.7 0 0 0-1.4 1.8 27.6 27.6 0 0 0-.8 2.7c-.2 1-.2 1.9-.4 2.9s-1 1.7-1 2.3v1.4a16.2 16.2 0 0 1 0 2.2v3.8c0 2.8-.2 5.6-.1 8.2a73.6 73.6 0 0 0 .6 8.1l.4.4.8.6a2.7 2.7 0 0 1 .8.7.9.9 0 0 1 .3.6c0 .2-.2.5-.8.8a7.5 7.5 0 0 1-1.8.8 10.4 10.4 0 0 1-2 .8l-1.3.5h-.1l-4.8-2.6a.6.6 0 0 1-.2-.5v-.6a27.9 27.9 0 0 1 0-2.9 14.6 14.6 0 0 0 .2-3c0-1.3-.2-2.6-.3-3.8l-.6-3.7-.6-3.7a23.8 23.8 0 0 1-.3-3.9c0-1.2.1-2.3.1-3.2a23.6 23.6 0 0 1 .4-2.8c.2-.9.3-1.8.5-2.8s.4-2 .7-3.2a2.3 2.3 0 0 0-.1-.7c0-.3-.1-.5-.1-.7l-1.9.2-1.8.5-1.9.6a13.9 13.9 0 0 1-1.9.6l-1.3.2h-2.1l-1-.2h-7a45.2 45.2 0 0 0-5.3-.2H121a3.5 3.5 0 0 0-2.3.9v5.1c0 1.7-.1 3.4-.2 5.1s-.1 3.3-.2 5-.2 3.4-.2 5.2v2.6a7.5 7.5 0 0 1 0 1.5v1c0 .6.7 1.1 1.2 1.7l1.3 1.7a6.6 6.6 0 0 1 1.2 1.7 3.2 3.2 0 0 1 .6 1.8v.4a10.7 10.7 0 0 1-4 .4c.1.4 0 .7-.2.7h-2.7a8.6 8.6 0 0 1-2.3-.2 4.2 4.2 0 0 1-1.8-.8 2.2 2.2 0 0 1-.7-1.9 4.9 4.9 0 0 1 .1-1.2l.3-1.3a7.9 7.9 0 0 0 .3-1.3 6.8 6.8 0 0 0 .2-1.4 23.4 23.4 0 0 0-.3-3.8c-.2-1.2-.4-2.4-.7-3.6s-.5-2.6-.8-3.8a25.3 25.3 0 0 1-.7-3.9h-.4c-.2 0-.4.8-.5.9a2.5 2.5 0 0 0-.4.7l-.3.5a18.8 18.8 0 0 1-1.6 2.3l-1.4 2.2a25.6 25.6 0 0 0-1.1 2.4 8.4 8.4 0 0 0-.4 2.7 4.5 4.5 0 0 0 .3 1.6 10.7 10.7 0 0 0 .7 1.5 6.2 6.2 0 0 0 .8 1.2l.3.5a.9.9 0 0 1-.4.8l-1 .4-1.3.3H98l-1.1-.4a2.2 2.2 0 0 1-.7-.9 10.3 10.3 0 0 1-.5-1.6 9.8 9.8 0 0 1-.5-1.6 4.5 4.5 0 0 1-.3-1.6 2.8 2.8 0 0 1 .4-1.5l.9-1.6 1.1-1.6a10 10 0 0 0 .8-1.4l2.4-5.8c.8-2 1.6-3.9 2.5-5.9a1.6 1.6 0 0 1 .4-.7l.6-.7c.1-.3.3-.5.4-.8a1.9 1.9 0 0 0 .2-.8c0-.4-.2-.6-.4-.6H103l-8.9 2.4a3.2 3.2 0 0 1-1.3.5l-1.8.4a7.6 7.6 0 0 0-1.6.6 1.1 1.1 0 0 0-.6 1 2 2 0 0 0 .2.9l.7.7.8.5.7.6-.4.5-1.2-.9-1.4-.8-1.5-.6a3.9 3.9 0 0 0-1.5-.2 12.8 12.8 0 0 0-3.8.5l-3.9 1.1-4.1 1.1a14.7 14.7 0 0 1-4.2.5 17.7 17.7 0 0 1-3.4-.4 32.6 32.6 0 0 1-4.8-1.1 56 56 0 0 1-5.4-1.7 46.8 46.8 0 0 1-5-2.2A15.3 15.3 0 0 1 47 172a4 4 0 0 1-1.4-2.9 4.3 4.3 0 0 1 1.1-3.3 6.1 6.1 0 0 1 2.7-1.6 19.4 19.4 0 0 1 3.5-.2c1.2 0 2.3.4 3.3.4h3.9c.2 0 .6-.4 1.3-.3a19.5 19.5 0 0 1 2.3.2l2.5.3 2 .2a6 6 0 0 1 1.9.6l1.8.8 1.8.8a6.4 6.4 0 0 0 2 .3 7.5 7.5 0 0 0 3.9-1.1 25 25 0 0 0 4.1-2.5 40.8 40.8 0 0 0 3.9-3.1l3.2-2.7 1.9-1.2 1.8-1.1 1.7-1.2a12.2 12.2 0 0 0 1.5-1.7 33 33 0 0 0 2.6-4.5 39.9 39.9 0 0 1 2.7-4.4 5.3 5.3 0 0 1 1.3-1.3l1.5-1 1.6-.8 1.6-.9 3.6-2.7c1.2-.9 2.3-1.9 3.4-2.9l3.3-2.9 3.5-2.9a32.8 32.8 0 0 1 3.7-2.2l3.9-1.8 2.5-1.3 2.4-1.3 2.6-1.1a11.1 11.1 0 0 1 2.6-.7l22.2-3.3a9.5 9.5 0 0 0 3.5-1.1 21 21 0 0 0 3.3-2.2 27.9 27.9 0 0 0 3.2-2.8c1-1.1 1.9-2.2 2.9-3.2l2.6-3.2 2.3-2.8 7.7-8.9.3-.3.5-.5.5-.5.3-.3 2-3.2.3-.2.3-.2.4-.3c.1-.1.2-.1.2-.2l.4-.4.4-.4 1.2-1.6a24.3 24.3 0 0 0 1.4-2l1.3-1.9 1-1.8a11.9 11.9 0 0 0 .8-2c.2-.6.5-1.4.7-2.1a18 18 0 0 1 .8-2.1c.2-.8 1-1.5 1-2.2v-6.1a5 5 0 0 0-1.1-3 10.7 10.7 0 0 0-2.6-2.6 12.4 12.4 0 0 0-3.4-1.8 8 8 0 0 0-3.1-.7 22 22 0 0 0-5.8.7 12.4 12.4 0 0 0-5.1 2.6l-1.4 1.4c-.5.6-1.1 1.2-1.6 1.9l-1.8 2-1.8 1.8a10.2 10.2 0 0 1-1.8 1.3 4.1 4.1 0 0 1-1.8.5 1.7 1.7 0 0 1-1.6-1.6v-.4a4.3 4.3 0 0 0 .1-.5 3.1 3.1 0 0 1 .2-.8c0-.2.1-.5.1-.7a1.3 1.3 0 0 0 .1-.5 4.7 4.7 0 0 0-.3-1.7 3.8 3.8 0 0 0-.6-1.3 6.1 6.1 0 0 1-.5-1.2 2.7 2.7 0 0 1-.3-1.2c.4 0 .7-.1.8-.3a1.5 1.5 0 0 0 .5-.6 4.3 4.3 0 0 1 .4-.7 1.2 1.2 0 0 1 .8-.6c0-.1.2-.1.5-.1h2.3c.5 0 .8-.1.9-.4l.8-.6c.1-.1.1 0 .2 0h.1l.3.4c0 .2.1.4.2.4s.1-.3.4-.4l.6-.3 1.1-.7 1.3-.8 1.4-.8 1-.6.6-.4a12 12 0 0 1 2.1-1.2l1.8-.7 1.9-.2h6.4l1.4.5 1.5.3 1.6.3 1.5.5a16.1 16.1 0 0 1 4.5 3 14.6 14.6 0 0 1 3.2 4.2 19.6 19.6 0 0 1 1.7 5 24.7 24.7 0 0 1 .5 5.4v2.3z"/></symbol></svg>